<svg width="58" height="58" viewBox="0 0 58 58" fill="none" xmlns="http://www.w3.org/2000/svg">
<path d="M21.9674 21.75C22.5356 20.1349 23.657 18.7729 25.1331 17.9054C26.6092 17.0379 28.3447 16.7208 30.0323 17.0102C31.7198 17.2997 33.2504 18.177 34.353 19.4869C35.4557 20.7967 36.0591 22.4545 36.0566 24.1667C36.0566 29 28.8066 31.4167 28.8066 31.4167M28.9999 41.0833H29.0241M53.1666 29C53.1666 42.3469 42.3468 53.1667 28.9999 53.1667C15.653 53.1667 4.83325 42.3469 4.83325 29C4.83325 15.6531 15.653 4.83334 28.9999 4.83334C42.3468 4.83334 53.1666 15.6531 53.1666 29Z" stroke="#F7F5F2" stroke-width="2" stroke-linecap="round" stroke-linejoin="round"/>
</svg>
